<?xml version="1.0" encoding="utf-8"?>
<!-- Generator: Adobe Illustrator 16.0.0, SVG Export Plug-In . SVG Version: 6.00 Build 0)  -->
<!DOCTYPE svg PUBLIC "-//W3C//DTD SVG 1.1//EN" "http://www.w3.org/Graphics/SVG/1.1/DTD/svg11.dtd">
<svg version="1.1" id="Layer_1" xmlns="http://www.w3.org/2000/svg" xmlns:xlink="http://www.w3.org/1999/xlink" x="0px" y="0px"
	 width="55px" height="55px" viewBox="0 0 55 55" enable-background="new 0 0 55 55" xml:space="preserve">
<g>
	<path fill-rule="evenodd" clip-rule="evenodd" fill="#8B5E3C" d="M9.293,9.472c0.89,0.604,1.688,1.145,2.453,1.665
		c0.216-1.147,0.412-2.301,0.658-3.442c0.152-0.709,0.37-0.805,0.944-0.397c0.691,0.492,1.34,1.053,2.069,1.633
		c0.464-1.426,0.541-2.985,1.285-4.424c1.277,0.646,2.018,1.907,2.977,2.83c0.565-1.598,1.096-3.161,1.675-4.703
		c0.274-0.732,0.52-0.748,1.005-0.123c0.331,0.426,0.619,0.889,0.932,1.332c0.209,0.295,0.429,0.579,0.621,0.837
		c0.617-1.463,1.186-2.854,1.794-4.221c0.127-0.286,0.223-0.725,0.595-0.742c0.206-0.009,0.464,0.367,0.602,0.614
		c0.892,1.606,1.85,3.174,2.411,5.121c0.199-0.27,0.341-0.43,0.447-0.616c0.562-0.973,1.104-1.961,1.677-2.926
		c0.324-0.547,0.577-0.586,0.983-0.121c0.304,0.35,0.595,0.75,0.771,1.186c0.439,1.082,0.812,2.195,1.208,3.296
		c0.092,0.254,0.183,0.508,0.295,0.822c1.08-1.224,2.123-2.407,3.147-3.568c0.929,0.639,1.03,0.917,1.821,4.849
		c0.745-0.498,1.469-0.981,2.271-1.517c0.905,1.244,0.523,2.869,1.045,4.272c1.072-0.392,2.147-0.784,3.261-1.19
		c0.729,1.313,0.706,2.773,0.9,4.144c0.813-0.103,1.564-0.197,2.346-0.296c0.484,1.279,0.549,2.501,0.302,3.752
		c-0.231,1.159-0.471,2.315-0.725,3.561c0.968-0.11,1.869-0.218,2.772-0.313c0.643-0.068,0.767,0.076,0.792,0.795
		c0.054,1.509-0.386,2.893-0.879,4.263c-0.093,0.253-0.186,0.506-0.316,0.867c0.778-0.088,1.46-0.187,2.144-0.238
		c0.795-0.061,0.89,0.126,0.608,0.954c-0.557,1.648-1.615,2.914-2.629,4.215c-0.139,0.178-0.358,0.278-0.605,0.463
		c1.353,0.608,2.485,1.115,3.715,1.669c-0.979,1.853-2.614,2.582-4.044,3.691c0.838,0.61,1.632,1.188,2.537,1.848
		c-0.19,0.329-0.326,0.669-0.542,0.928c-0.776,0.938-1.791,1.434-2.878,1.774c-0.302,0.094-0.61,0.169-1.093,0.302
		c0.775,0.535,1.417,0.969,2.05,1.415c0.636,0.449,1.24,0.938,1.748,1.719c-2.109,1.585-4.384,1.625-6.68,1.292
		c0.889,2.047,1.763,4.063,2.636,6.077c0.056,0.128,0.151,0.248,0.163,0.379c0.263,0.406,0.274,0.724,0.031,0.983
		c-0.113,0.193-0.554,0.028-0.81-0.046c-2.216-0.651-4.26-1.645-5.914-3.476c-0.866-0.962-1.504-2.076-2.101-3.236
		c-0.091-0.177-0.199-0.343-0.342-0.584c-0.577,0.458-1.125,0.864-1.644,1.312c-0.992,0.857-2.118,1.351-3.323,1.771
		c-2.17,0.757-4.396,0.9-6.62,0.853c-3.349-0.073-6.649-0.559-9.843-1.835c-1.367-0.546-2.595-1.297-3.784-2.123
		c-0.298,0.777-0.582,1.547-0.886,2.305c-0.783,1.959-2.084,3.397-3.733,4.492c-0.433,0.288-0.832,0.64-1.264,0.93
		c-0.443,0.297-0.926,0.456-1.566,0.28c-0.149-2.85,0.486-5.474,1.984-7.991c-0.295,0.027-0.496,0.029-0.69,0.069
		c-1.784,0.353-3.546,0.369-5.251-0.449c-0.203-0.097-0.415-0.191-0.594-0.333c-0.421-0.328-0.469-0.707-0.092-1.121
		c0.646-0.71,1.329-1.381,2.027-2.1c-1.738-0.693-3.336-1.617-4.114-3.72c0.757-1.152,2.017-1.383,3.16-2.061
		c-0.313-0.291-0.588-0.505-0.818-0.766c-0.638-0.729-1.319-1.427-1.867-2.23c-0.529-0.779-0.446-1.06,0.34-1.44
		c0.659-0.317,1.375-0.494,2.162-0.764c-0.169-0.24-0.355-0.546-0.58-0.814c-1.192-1.431-1.918-3.124-2.369-4.975
		c-0.146-0.601-0.062-0.797,0.49-0.839c0.536-0.04,1.078,0.014,1.618,0.039c0.276,0.013,0.551,0.054,0.921,0.093
		c-0.626-1.965-1.471-3.745-1.504-5.778c1.19-0.507,2.302-0.231,3.513,0.119c-0.185-0.898-0.351-1.704-0.517-2.51
		c-0.228-1.11-0.225-2.214-0.023-3.333c0.1-0.553,0.375-0.72,0.811-0.58c0.642,0.206,1.269,0.462,1.899,0.709
		c0.266,0.104,0.521,0.237,0.849,0.388C8.454,12.794,8.173,11.028,9.293,9.472z"/>
	<g>
		<path fill-rule="evenodd" clip-rule="evenodd" fill="#442A18" d="M11.099,41.182c-0.776-2.066-0.959-3.862,0.451-5.544
			c-0.096,0.885-0.21,1.768-0.283,2.654C11.193,39.179,11.162,40.068,11.099,41.182z"/>
		<path fill-rule="evenodd" clip-rule="evenodd" fill="#442A18" d="M42.541,40.396c0.138-1.944,0.045-3.806-0.343-5.69
			c0.798,0.731,1.277,2.002,1.087,2.907c-0.163,0.778-0.365,1.548-0.56,2.318C42.686,40.091,42.604,40.24,42.541,40.396z"/>
	</g>
	<g>
		<g>
			<path fill-rule="evenodd" clip-rule="evenodd" fill="#F1BC97" d="M42.002,37.461c0.103,1.716-0.159,3.387-0.667,4.959
				c-0.567,1.754-1.532,3.284-2.991,4.352c-0.212,0.154-0.439,0.289-0.635,0.467c-2.218,2.038-4.906,2.613-7.66,2.722
				c-2.281,0.091-3.943,0.284-6.385-0.187c-0.437-0.022-1.35-0.258-1.777-0.395c-1.476-0.185-3.312-0.817-4.946-1.613
				c-0.486-0.237-0.995-0.485-1.433-0.825c-0.78-0.603-1.598-1.189-2.25-1.941c-0.86-0.991-1.453-2.16-1.536-3.621
				c-0.12-2.119,0.196-4.173,0.528-6.237c0.112-0.7,0.435-1.16,0.98-1.564c2.98-2.221,6.37-3.259,9.858-3.629
				c3.053-0.323,6.174-0.65,9.233,0.072c1.953,0.462,4.015,0.412,5.848,1.452c0.736,0.415,1.475,0.83,2.2,1.27
				c0.688,0.419,1.017,1.159,1.196,1.934C41.777,35.588,41.861,36.53,42.002,37.461z"/>
			<path fill-rule="evenodd" clip-rule="evenodd" fill="#F1BC97" d="M43.354,39.965c0.146-0.758,0.267-1.434,0.412-2.1
				c0.043-0.195,0.132-0.398,0.254-0.545c0.271-0.325,1.102-0.517,1.316-0.305c0.357,0.358,0.281,0.827,0.182,1.265
				C45.322,39.147,44.439,39.854,43.354,39.965z"/>
			<path fill-rule="evenodd" clip-rule="evenodd" fill="#F1BC97" d="M10.165,40.566c-0.801-0.044-1.384-0.355-1.656-1.165
				c-0.184-0.55,0.027-1.021,0.476-1.171c0.5-0.163,0.914,0.137,1.005,0.76C10.063,39.492,10.103,40.001,10.165,40.566z"/>
		</g>
		<g>
			<g>
				<path fill="#E6352C" d="M20.374,39.466c-0.979-0.21-4.868-1.398-5.845-1.564c-0.724-0.122-0.981,1.098-0.255,1.22l0,0
					c0.973,0.167,1.943,0.582,2.914,0.81c0.697,0.163,1.427,0.19,2.097,0.474c0.391,0.163,0.722,0.271,1.14,0.312
					C21.155,40.787,21.096,39.536,20.374,39.466"/>
			</g>
			<g>
				<path fill="#FFFFFF" d="M14.064,40.854c1.748,0.884,3.763,0.824,5.559,1.474c0.7,0.253,0.947-0.968,0.254-1.22
					c-1.694-0.613-3.636-0.527-5.281-1.359C13.929,39.41,13.396,40.516,14.064,40.854L14.064,40.854z"/>
			</g>
		</g>
		<g>
			<g>
				<path fill="#E6352C" d="M39.337,36.571c-0.875,0.412-1.759,0.801-2.633,1.213c-0.862,0.407-1.778,0.581-2.604,1.088
					c-0.641,0.396-0.022,1.448,0.617,1.055c0.729-0.449,1.562-0.619,2.337-0.949c0.885-0.38,1.761-0.802,2.633-1.215
					C40.355,37.449,40.013,36.252,39.337,36.571L39.337,36.571z"/>
			</g>
			<g>
				<path fill="#FFFFFF" d="M39.931,38.458c-0.594,0.562-1.455,0.749-2.19,0.974c-0.877,0.269-1.715,0.696-2.586,0.991
					c-0.702,0.236-0.353,1.431,0.351,1.192c1.04-0.354,2.04-0.821,3.089-1.146c0.799-0.248,1.544-0.565,2.179-1.162
					C41.328,38.781,40.481,37.938,39.931,38.458L39.931,38.458z"/>
			</g>
		</g>
		<g>
			<path fill="#FFFFFF" d="M26.228,30.968c0.152,1.074,0.226,2.157,0.271,3.244c0.034,0.807,1.172,0.755,1.14-0.05
				c-0.046-1.088-0.12-2.171-0.272-3.246C27.255,30.128,26.116,30.17,26.228,30.968L26.228,30.968z"/>
		</g>
		<g>
			<path fill="#39A9E0" d="M24.655,30.881c0.038,1.097,0.016,2.196,0.187,3.281c0.124,0.783,1.266,0.741,1.14-0.052
				c-0.171-1.086-0.15-2.184-0.188-3.28C25.766,30.023,24.627,30.075,24.655,30.881L24.655,30.881z"/>
		</g>
		<g>
			<path fill="#39A9E0" d="M28.011,30.605c0.147,1.188,0.069,2.386,0.276,3.568c0.138,0.788,1.222,0.401,1.085-0.383
				c-0.187-1.064-0.09-2.164-0.222-3.237C29.051,29.762,27.912,29.806,28.011,30.605L28.011,30.605z"/>
		</g>
	</g>
	<g>
		<path fill-rule="evenodd" clip-rule="evenodd" fill="#C49A6C" d="M12.847,32.865c0.682-1.649,1.576-3.077,2.943-4.032
			c1.582-1.106,3.205-2.156,5.005-2.774c1.816-0.624,3.643-1.308,5.583-1.246c1.809,0.059,3.626,0.097,5.368,0.793
			c1.068,0.426,2.16,0.778,3.247,1.146c1.686,0.572,3,1.816,4.38,2.935c0.736,0.598,1.396,1.676,1.736,2.7
			c-0.455-0.282-0.829-0.506-1.196-0.745c-1.583-1.026-3.259-1.691-5.114-1.862c-1.263-0.115-2.506-0.497-3.767-0.643
			c-2.186-0.254-4.378-0.38-6.561,0.067c-0.093,0.02-0.196,0.044-0.284,0.02c-1.668,0.186-2.652,0.173-3.942,0.476
			c-1.986,0.468-3.936,1.106-5.751,2.142C13.934,32.16,13.395,32.522,12.847,32.865z"/>
		<g>
			<g>
				<path fill-rule="evenodd" clip-rule="evenodd" fill="#E6352C" d="M26.321,0.597c0.985,1.671,1.814,3.23,2.401,4.931
					c0.925,2.671,1.429,5.428,1.306,8.293c-0.076,1.772-0.631,4.767-1.797,6.473c-0.532,0.024-1.103,0.089-1.67,0.056
					c-0.257-0.014-0.557-0.164-0.75-0.356c-1.083-1.09-1.752-2.472-2.169-3.996c-0.645-2.353-0.611-4.741-0.12-7.106
					c0.331-1.593,0.737-3.179,1.243-4.716C25.158,2.983,25.756,1.873,26.321,0.597z"/>
				<g>
					<path fill-rule="evenodd" clip-rule="evenodd" fill="#FFFFFF" d="M23.222,10.911c-0.153,1.699-0.041,3.403,0.421,5.087
						c0.417,1.523,1.086,2.905,2.169,3.996c0.156,0.158,0.384,0.281,0.602,0.332c-0.149-4.544-0.216-9.09-0.326-13.634
						C25.176,8.133,24.257,9.571,23.222,10.911z"/>
					<path fill-rule="evenodd" clip-rule="evenodd" fill="#FFFFFF" d="M28.18,8.347c-0.494-0.44-1.021-0.851-1.401-1.396
						c0.106,4.467,0.174,8.937,0.32,13.403c0.387-0.011,0.77-0.045,1.132-0.061c1.166-1.706,1.721-4.7,1.797-6.473
						c0.046-1.085,0.004-2.154-0.119-3.21C29.355,9.835,28.891,8.98,28.18,8.347z"/>
				</g>
				<g>
					<path fill-rule="evenodd" clip-rule="evenodd" fill="#442A18" d="M25.98,5.987c0.024-0.039,0.055-0.065,0.088-0.084
						c-0.038-1.487-0.081-2.974-0.134-4.46c-0.439,0.938-0.865,1.812-1.169,2.734c-0.506,1.537-0.912,3.123-1.243,4.716
						c-0.076,0.362-0.139,0.725-0.191,1.088C24.272,8.697,25.124,7.341,25.98,5.987z"/>
					<path fill-rule="evenodd" clip-rule="evenodd" fill="#442A18" d="M26.859,6.133c0.401,1.08,1.493,1.567,2.172,2.401
						c0.265,0.326,0.498,0.679,0.731,1.034c-0.227-1.37-0.581-2.716-1.04-4.041c-0.529-1.532-1.255-2.951-2.116-4.439
						c0.061,1.64,0.107,3.279,0.149,4.92C26.799,6.035,26.837,6.072,26.859,6.133z"/>
				</g>
			</g>
			<g>
				<path fill-rule="evenodd" clip-rule="evenodd" fill="#E6352C" d="M31.699,20.899c1.353-2.057,2.191-4.152,2.796-6.372
					c0.441-1.622,0.612-3.269,0.399-4.951c-0.106-0.832-0.013-1.566,0.547-2.212c0.802-0.926,1.417-2.056,2.548-2.75
					c0.118,0.237,0.287,0.452,0.336,0.694c0.32,1.601,0.751,3.194,0.874,4.814c0.094,1.226-0.149,2.501-0.363,3.729
					c-0.387,2.218-1.168,4.267-2.424,6.083c-0.821,1.188-1.796,1.85-3.205,1.367C32.757,21.149,32.289,21.055,31.699,20.899z"/>
				<g>
					<path fill-rule="evenodd" clip-rule="evenodd" fill="#442A18" d="M35.441,7.365c-0.558,0.644-0.652,1.376-0.547,2.206
						c0.724-0.216,1.428-0.494,2.057-0.957c0.347-1.269,0.657-2.549,0.883-3.85c0.005-0.021,0.013-0.036,0.021-0.055
						C36.812,5.407,36.21,6.477,35.441,7.365z"/>
					<path fill-rule="evenodd" clip-rule="evenodd" fill="#442A18" d="M37.343,9.173c0.63,1.267,1.157,2.579,1.623,3.923
						c0.168-0.99,0.308-1.998,0.233-2.973c-0.123-1.62-0.554-3.213-0.874-4.814c-0.016-0.081-0.048-0.158-0.084-0.234
						c-0.246,1.361-0.58,2.7-0.952,4.028C37.309,9.123,37.328,9.143,37.343,9.173z"/>
				</g>
				<g>
					<path fill-rule="evenodd" clip-rule="evenodd" fill="#FFFFFF" d="M34.942,10.07c0.125,1.51-0.048,2.995-0.447,4.457
						c-0.604,2.219-1.443,4.315-2.796,6.372c0.458,0.121,0.842,0.206,1.201,0.31c1.107-2.628,1.903-5.381,2.731-8.131
						c0.374-1.244,0.76-2.49,1.118-3.746C36.182,9.666,35.569,9.888,34.942,10.07z"/>
					<path fill-rule="evenodd" clip-rule="evenodd" fill="#FFFFFF" d="M38.77,13.937c-0.472-1.437-1.015-2.834-1.664-4.183
						c-0.376,1.301-0.779,2.593-1.163,3.885c-0.776,2.608-1.552,5.213-2.597,7.706c1.334,0.393,2.272-0.261,3.066-1.408
						c1.228-1.774,1.996-3.773,2.394-5.934C38.792,13.983,38.778,13.964,38.77,13.937z"/>
				</g>
			</g>
			<g>
				<path fill-rule="evenodd" clip-rule="evenodd" fill="#E6352C" d="M28.923,20.401c0.098-0.287,0.161-0.549,0.271-0.786
					c0.939-2.035,1.322-4.232,1.391-6.473c0.061-1.956-0.121-3.919-0.732-5.791c-0.235-0.721-0.188-1.315,0.246-1.946
					c0.515-0.751,0.928-1.586,1.395-2.378c0.115-0.197,0.269-0.37,0.436-0.6c0.767,0.823,1.192,1.814,1.532,2.806
					c0.984,2.88,1.235,5.854,0.612,8.867c-0.487,2.353-1.465,4.46-2.878,6.311c-0.125,0.164-0.361,0.344-0.53,0.326
					C30.105,20.677,29.554,20.531,28.923,20.401z"/>
				<g>
					<path fill-rule="evenodd" clip-rule="evenodd" fill="#442A18" d="M30.03,7.938c0.593-0.284,1.18-0.582,1.719-0.984
						c0.069-0.051,0.138-0.051,0.195-0.025c0.188-1.405,0.177-2.834-0.16-4.308c-0.111,0.142-0.21,0.268-0.291,0.406
						c-0.467,0.792-0.88,1.626-1.395,2.378c-0.434,0.631-0.481,1.225-0.246,1.946C29.917,7.546,29.976,7.741,30.03,7.938z"/>
					<path fill-rule="evenodd" clip-rule="evenodd" fill="#442A18" d="M32.368,7.025c0.002,0.001,0.002,0.001,0.003,0.002
						c0.729,0.706,1.382,1.492,1.976,2.332c-0.124-1.392-0.423-2.769-0.886-4.125c-0.278-0.814-0.619-1.626-1.154-2.346
						C32.578,4.308,32.562,5.681,32.368,7.025z"/>
				</g>
				<g>
					<path fill-rule="evenodd" clip-rule="evenodd" fill="#FFFFFF" d="M31.861,7.471c-0.54,0.381-1.12,0.673-1.707,0.953
						c0.276,1.16,0.406,2.348,0.435,3.54C31.125,10.479,31.603,8.989,31.861,7.471z"/>
					<path fill-rule="evenodd" clip-rule="evenodd" fill="#FFFFFF" d="M32.273,7.608c-0.341,1.877-1,3.706-1.688,5.534
						c-0.068,2.24-0.451,4.438-1.391,6.472c-0.11,0.237-0.174,0.5-0.271,0.786c0.631,0.13,1.183,0.276,1.742,0.336
						c0.169,0.019,0.405-0.162,0.53-0.326c1.413-1.851,2.391-3.958,2.878-6.311c0.266-1.282,0.37-2.559,0.329-3.822
						C33.775,9.312,33.07,8.412,32.273,7.608z"/>
				</g>
			</g>
			<g>
				<path fill-rule="evenodd" clip-rule="evenodd" fill="#E6352C" d="M40.555,25.637c-0.695-0.635-1.375-1.255-2.062-1.883
					c3.585-3.495,4.193-5.565,4.53-11.857c0.438-0.16,0.909-0.34,1.386-0.5c0.482-0.162,0.972-0.303,1.505-0.468
					c0.085,0.24,0.191,0.452,0.234,0.68c0.69,3.603,0.445,7.076-1.246,10.321C44.071,23.521,42.298,25.028,40.555,25.637z"/>
				<g>
					<path fill-rule="evenodd" clip-rule="evenodd" fill="#FFFFFF" d="M44.408,16.917c-0.324,0.605-0.649,1.191-0.924,1.753
						c-1.033,2.106-2.188,4.588-4.102,5.896c0.389,0.354,0.777,0.709,1.172,1.07c1.743-0.609,3.517-2.116,4.347-3.707
						c0.177-0.339,0.333-0.68,0.479-1.023C45.142,19.554,44.722,18.251,44.408,16.917z"/>
					<path fill-rule="evenodd" clip-rule="evenodd" fill="#FFFFFF" d="M42.611,16.348c-0.508,3.125-1.549,4.898-4.119,7.406
						c0.178,0.162,0.353,0.323,0.529,0.483c2.001-1.257,3.096-3.912,4.172-6.031c0.317-0.626,0.708-1.304,1.086-2.014
						C43.719,16.208,43.164,16.27,42.611,16.348z"/>
				</g>
				<g>
					<path fill-rule="evenodd" clip-rule="evenodd" fill="#442A18" d="M45.687,20.126c0.963-2.718,1.024-5.575,0.461-8.518
						c-0.009-0.048-0.023-0.095-0.036-0.141c0.116,1.669-0.583,3.3-1.373,4.826C45.007,17.585,45.402,18.84,45.687,20.126z"/>
					<path fill-rule="evenodd" clip-rule="evenodd" fill="#442A18" d="M44.365,15.686c0.062-0.001,0.109,0.023,0.146,0.058
						c0.751-1.477,1.368-3.072,1.108-4.619c-0.008-0.038-0.007-0.074,0.001-0.106c-0.422,0.128-0.82,0.247-1.213,0.378
						c-0.477,0.16-0.947,0.34-1.386,0.5c-0.082,1.538-0.182,2.822-0.336,3.938C43.243,15.758,43.803,15.698,44.365,15.686z"/>
				</g>
			</g>
			<g>
				<path fill-rule="evenodd" clip-rule="evenodd" fill="#E6352C" d="M9.485,10.412c0.823,0.624,1.572,1.19,2.244,1.7
					c0.114,1.197,0.175,2.279,0.327,3.345c0.251,1.767,0.791,3.452,1.451,5.076c0.505,1.243,1.5,2.062,2.543,2.982
					c-0.994,0.783-1.958,1.541-3.023,2.378c-0.275-0.254-0.658-0.517-0.931-0.878c-0.962-1.273-1.643-2.708-2.139-4.284
					c-0.428-1.36-0.771-2.726-0.993-4.139c-0.274-1.744-0.201-3.47,0.148-5.186C9.172,11.111,9.322,10.836,9.485,10.412z"/>
				<g>
					<path fill-rule="evenodd" clip-rule="evenodd" fill="#FFFFFF" d="M13.507,20.533c-0.282-0.694-0.54-1.4-0.766-2.119
						c-0.617-0.196-1.234-0.423-1.809-0.736c0.763,2.663,1.965,5.164,3.771,6.897c0.451-0.354,0.896-0.705,1.347-1.06
						C15.007,22.595,14.012,21.776,13.507,20.533z"/>
					<path fill-rule="evenodd" clip-rule="evenodd" fill="#FFFFFF" d="M10.462,17.691c-0.198,0.774-0.496,1.516-0.733,2.281
						c0.074,0.253,0.147,0.507,0.227,0.76c0.497,1.576,1.177,3.011,2.139,4.284c0.273,0.361,0.656,0.624,0.931,0.878
						c0.448-0.353,0.876-0.688,1.298-1.02C12.469,23.049,11.239,20.448,10.462,17.691z"/>
				</g>
				<g>
					<path fill-rule="evenodd" clip-rule="evenodd" fill="#442A18" d="M12.569,17.836c-0.22-0.777-0.398-1.57-0.513-2.38
						c-0.151-1.066-0.213-2.148-0.327-3.345c-0.58-0.439-1.22-0.924-1.913-1.449c0.097,1.978,0.381,4.192,0.933,6.337
						C11.317,17.364,11.938,17.623,12.569,17.836z"/>
					<path fill-rule="evenodd" clip-rule="evenodd" fill="#442A18" d="M10.18,16.777c0.003-0.03,0.015-0.053,0.025-0.075
						c-0.489-2.031-0.749-4.105-0.843-5.987c-0.112,0.265-0.207,0.473-0.251,0.692c-0.35,1.715-0.423,3.442-0.148,5.186
						c0.138,0.875,0.327,1.731,0.548,2.58C9.78,18.388,10.062,17.611,10.18,16.777z"/>
				</g>
			</g>
			<g>
				<path fill-rule="evenodd" clip-rule="evenodd" fill="#E6352C" d="M25.157,20.489c-0.755,0.083-1.408,0.192-2.062,0.207
					c-0.213,0.005-0.463-0.197-0.643-0.371c-1.279-1.228-1.903-2.85-2.286-4.617c-0.681-3.148-0.407-6.236,0.468-9.283
					c0.219-0.765,0.465-1.521,0.715-2.274c0.118-0.354,0.277-0.692,0.499-1.236c0.68,1.008,1.27,1.884,1.76,2.613
					c-0.306,1.928-0.685,3.695-0.848,5.486c-0.24,2.633-0.051,5.234,1.208,7.601C24.286,19.212,24.688,19.756,25.157,20.489z"/>
				<g>
					<path fill-rule="evenodd" clip-rule="evenodd" fill="#442A18" d="M22.29,8.626c0.253,0.076,0.501,0.165,0.747,0.263
						c0.175-1.089,0.386-2.196,0.57-3.362c-0.461-0.687-1.014-1.506-1.644-2.441C22.157,4.923,22.058,6.797,22.29,8.626z"/>
					<path fill-rule="evenodd" clip-rule="evenodd" fill="#442A18" d="M21.874,8.927c0.001-0.003,0.004-0.004,0.005-0.008
						c-0.214-1.759-0.174-3.541-0.323-5.308c-0.081,0.194-0.149,0.365-0.208,0.54c-0.25,0.753-0.496,1.51-0.715,2.274
						c-0.61,2.126-0.926,4.272-0.832,6.444C20.56,11.598,21.327,10.331,21.874,8.927z"/>
				</g>
				<g>
					<path fill-rule="evenodd" clip-rule="evenodd" fill="#FFFFFF" d="M22.367,9.172c0.103,0.625,0.239,1.242,0.392,1.852
						c0-0.003,0-0.007,0.001-0.011c0.05-0.542,0.12-1.082,0.201-1.625C22.765,9.309,22.566,9.237,22.367,9.172z"/>
					<path fill-rule="evenodd" clip-rule="evenodd" fill="#FFFFFF" d="M23.968,18.614c-1.02-1.916-1.337-3.987-1.294-6.104
						c-0.263-0.893-0.5-1.794-0.662-2.714c-0.609,1.366-1.402,2.617-2.153,3.893c0.062,0.67,0.161,1.343,0.307,2.019
						c0.382,1.767,1.006,3.389,2.286,4.617c0.18,0.174,0.43,0.375,0.643,0.371c0.655-0.015,1.308-0.124,2.062-0.207
						C24.688,19.756,24.286,19.212,23.968,18.614z"/>
				</g>
			</g>
			<g>
				<path fill-rule="evenodd" clip-rule="evenodd" fill="#E6352C" d="M21.872,21.009c-0.63,0.208-1.18,0.365-1.713,0.573
					c-0.496,0.194-0.888,0.044-1.185-0.383c-0.366-0.527-0.744-1.059-1.026-1.642c-1.385-2.858-2.181-5.889-2.031-9.15
					c0.076-1.642,0.331-3.256,1.032-4.781c0.983,0.713,1.757,1.642,2.426,2.656c0.185,0.281,0.121,0.794,0.1,1.196
					c-0.061,1.217-0.237,2.433-0.222,3.647c0.036,2.797,0.746,5.365,2.425,7.545C21.736,20.748,21.776,20.843,21.872,21.009z"/>
				<g>
					<path fill-rule="evenodd" clip-rule="evenodd" fill="#442A18" d="M18.031,11.633c0.424,0.349,0.81,0.752,1.223,1.114
						c0.02-1.087,0.165-2.177,0.22-3.267c0.021-0.402,0.085-0.915-0.1-1.196c-0.603-0.915-1.294-1.759-2.145-2.44
						c0.216,1.77,0.363,3.56,0.7,5.308C17.96,11.312,17.997,11.472,18.031,11.633z"/>
					<path fill-rule="evenodd" clip-rule="evenodd" fill="#442A18" d="M17.353,11.448c0.037-0.076,0.092-0.113,0.152-0.123
						c-0.032-0.162-0.062-0.323-0.091-0.485c-0.282-1.6-0.428-3.224-0.623-4.838c-0.579,1.414-0.805,2.898-0.874,4.406
						c-0.056,1.221,0.021,2.408,0.211,3.567L17.353,11.448z"/>
				</g>
				<g>
					<path fill-rule="evenodd" clip-rule="evenodd" fill="#FFFFFF" d="M21.677,20.671c-1.63-2.116-2.345-4.597-2.418-7.299
						c-0.368-0.298-0.705-0.638-1.055-0.961c0.216,0.915,0.461,1.822,0.673,2.739c0.482,2.066,0.93,4.406,2.156,6.129
						c0.267-0.085,0.543-0.172,0.838-0.27C21.776,20.843,21.736,20.748,21.677,20.671z"/>
					<path fill-rule="evenodd" clip-rule="evenodd" fill="#FFFFFF" d="M18.444,15.302c-0.264-1.126-0.564-2.237-0.812-3.366
						l-1.36,2.807c0.348,1.662,0.924,3.263,1.675,4.814c0.282,0.583,0.66,1.114,1.026,1.642c0.296,0.427,0.689,0.577,1.185,0.383
						c0.137-0.053,0.275-0.103,0.415-0.152C19.394,19.672,18.927,17.375,18.444,15.302z"/>
				</g>
			</g>
			<g>
				<path fill-rule="evenodd" clip-rule="evenodd" fill="#E6352C" d="M35.448,21.951c2.603-2.561,3.6-5.961,4.126-9.598
					c0.1-0.685,0.124-1.385,0.144-2.08c0.02-0.677,0.212-1.202,0.795-1.525c0.389-0.215,0.748-0.494,1.204-0.802
					c0.134,0.424,0.268,0.733,0.33,1.058c0.564,2.95,0.563,5.884-0.254,8.782c-0.371,1.315-0.922,2.512-1.889,3.446
					c-0.451,0.436-0.827,0.967-1.271,1.414c-0.623,0.629-0.944,0.655-1.701,0.236c-0.453-0.253-0.907-0.504-1.358-0.763
					C35.522,22.089,35.493,22.013,35.448,21.951z"/>
				<g>
					<path fill-rule="evenodd" clip-rule="evenodd" fill="#442A18" d="M40.639,12.242c0.295-1.351,0.543-2.716,0.774-4.087
						c-0.32,0.225-0.603,0.428-0.9,0.593c-0.583,0.323-0.775,0.848-0.795,1.525c-0.02,0.695-0.044,1.395-0.144,2.08
						c-0.011,0.072-0.022,0.144-0.032,0.214C39.908,12.467,40.275,12.36,40.639,12.242z"/>
					<path fill-rule="evenodd" clip-rule="evenodd" fill="#442A18" d="M41.104,12.76c0.357,1.047,0.756,2.078,1.106,3.125
						c0.371-2.277,0.278-4.574-0.163-6.881c-0.042-0.217-0.116-0.428-0.199-0.67c-0.247,1.448-0.52,2.882-0.84,4.302
						C41.047,12.662,41.082,12.699,41.104,12.76z"/>
				</g>
				<g>
					<path fill-rule="evenodd" clip-rule="evenodd" fill="#FFFFFF" d="M39.458,13.102c-0.556,3.353-1.587,6.465-4.01,8.849
						c0.045,0.062,0.074,0.139,0.125,0.167c0.276,0.159,0.557,0.312,0.836,0.469c1.535-1.49,2.305-3.813,3.008-5.866
						c0.439-1.286,0.794-2.597,1.097-3.922C40.164,12.908,39.812,13.009,39.458,13.102z"/>
					<path fill-rule="evenodd" clip-rule="evenodd" fill="#FFFFFF" d="M40.832,13.38c-0.34,1.406-0.733,2.798-1.217,4.169
						c-0.661,1.876-1.42,3.882-2.774,5.279c0.03,0.018,0.06,0.035,0.091,0.052c0.757,0.419,1.078,0.393,1.701-0.236
						c0.444-0.447,0.82-0.978,1.271-1.414c0.967-0.934,1.518-2.13,1.889-3.446c0.09-0.319,0.167-0.639,0.239-0.958
						C41.675,15.662,41.237,14.527,40.832,13.38z"/>
				</g>
			</g>
			<g>
				<path fill-rule="evenodd" clip-rule="evenodd" fill="#E6352C" d="M11.287,28.287c-0.421,1.165-0.817,2.257-1.263,3.49
					c-0.577-0.263-1.181-0.461-1.711-0.798c-1.57-0.996-2.821-2.35-3.743-4.091c-0.885-1.671-1.6-3.412-2.102-5.259
					c-0.115-0.424-0.145-0.875-0.219-1.348c1.108-0.321,2.087-0.124,3.008,0.409c0.221,0.128,0.392,0.435,0.505,0.7
					c0.738,1.718,1.679,3.285,2.962,4.566C9.545,26.777,10.433,27.514,11.287,28.287z"/>
				<g>
					<path fill-rule="evenodd" clip-rule="evenodd" fill="#442A18" d="M5.384,24.02c0.608,0.08,1.216,0.036,1.822,0.064
						c-0.558-0.837-1.033-1.74-1.442-2.693c-0.114-0.265-0.284-0.572-0.505-0.7c-0.884-0.511-1.822-0.708-2.876-0.439
						c0.902,1.247,1.831,2.562,2.824,3.823C5.251,24.035,5.312,24.011,5.384,24.02z"/>
					<path fill-rule="evenodd" clip-rule="evenodd" fill="#442A18" d="M5.004,24.591c0-0.003,0.001-0.005,0.002-0.009
						c-0.932-1.171-1.807-2.394-2.657-3.574c0.03,0.213,0.065,0.42,0.119,0.621c0.502,1.847,1.217,3.587,2.102,5.259
						c0.159,0.3,0.331,0.583,0.509,0.861C5.072,26.697,4.975,25.646,5.004,24.591z"/>
				</g>
				<g>
					<path fill-rule="evenodd" clip-rule="evenodd" fill="#FFFFFF" d="M8.725,25.957c-0.418-0.419-0.797-0.87-1.147-1.343
						c-0.663-0.087-1.335-0.028-2.002-0.078c1.559,1.92,3.283,3.678,5.325,4.819c0.127-0.354,0.256-0.708,0.387-1.068
						C10.433,27.514,9.545,26.777,8.725,25.957z"/>
					<path fill-rule="evenodd" clip-rule="evenodd" fill="#FFFFFF" d="M5.456,25.137c0.009,1.084,0.109,2.167,0.068,3.252
						c0.776,1.039,1.705,1.903,2.79,2.591c0.53,0.337,1.135,0.535,1.711,0.798c0.246-0.681,0.477-1.319,0.706-1.953
						C8.713,28.712,7.002,27.012,5.456,25.137z"/>
				</g>
			</g>
			<g>
				<path fill-rule="evenodd" clip-rule="evenodd" fill="#E6352C" d="M13.082,8.002c0.758,0.657,1.503,1.302,2.264,1.962
					c-0.188,4.444,0.942,8.438,3.313,12.167c-0.295,0.162-0.614,0.349-0.941,0.515c-0.314,0.159-0.638,0.296-0.937,0.434
					c-0.497-0.412-0.982-0.757-1.407-1.177c-0.767-0.758-1.362-1.659-1.732-2.731c-1.05-3.04-1.369-6.174-1.036-9.391
					c0.05-0.484,0.159-0.961,0.255-1.437C12.878,8.254,12.963,8.18,13.082,8.002z"/>
				<g>
					<path fill-rule="evenodd" clip-rule="evenodd" fill="#442A18" d="M15.646,14.546c-0.263-1.476-0.367-2.999-0.299-4.582
						c-0.683-0.592-1.354-1.173-2.032-1.76c0.086,1.965,0.407,3.938,0.927,5.854C14.727,14.161,15.193,14.334,15.646,14.546z"/>
					<path fill-rule="evenodd" clip-rule="evenodd" fill="#442A18" d="M13.685,13.93c0.009-0.025,0.022-0.04,0.036-0.059
						c-0.472-1.814-0.766-3.677-0.856-5.54c-0.001,0.004-0.004,0.008-0.004,0.013c-0.096,0.476-0.205,0.953-0.255,1.437
						c-0.224,2.169-0.151,4.3,0.241,6.39C13.125,15.423,13.401,14.675,13.685,13.93z"/>
				</g>
				<g>
					<path fill-rule="evenodd" clip-rule="evenodd" fill="#FFFFFF" d="M15.765,15.153c-0.441-0.227-0.895-0.421-1.368-0.547
						c0.829,2.82,2.093,5.502,3.707,7.833c0.191-0.105,0.379-0.211,0.556-0.308C17.248,19.913,16.28,17.599,15.765,15.153z"/>
					<path fill-rule="evenodd" clip-rule="evenodd" fill="#FFFFFF" d="M13.924,14.604c-0.302,0.802-0.599,1.607-0.901,2.409
						c0.167,0.725,0.372,1.444,0.619,2.159c0.37,1.072,0.965,1.973,1.732,2.731c0.425,0.419,0.91,0.765,1.407,1.177
						c0.291-0.134,0.605-0.269,0.911-0.421C16.045,20.253,14.759,17.5,13.924,14.604z"/>
				</g>
			</g>
			<g>
				<path fill-rule="evenodd" clip-rule="evenodd" fill="#E6352C" d="M51.772,21.568c0.509,4.056-2.835,9.764-7.806,9.836
					c-0.304-0.83-0.614-1.679-0.954-2.607c0.529-0.388,1.101-0.821,1.685-1.231c1.596-1.12,2.839-2.594,3.571-4.509
					c0.333-0.869,0.826-1.242,1.645-1.279C50.535,21.749,51.154,21.64,51.772,21.568z"/>
				<g>
					<path fill-rule="evenodd" clip-rule="evenodd" fill="#FFFFFF" d="M47.33,24.885c-0.7,1.061-1.59,1.947-2.633,2.681
						c-0.584,0.41-1.155,0.844-1.685,1.231c0.076,0.207,0.15,0.409,0.224,0.609c2.373-0.769,4.625-2.521,6.359-4.623L47.33,24.885z"
						/>
					<path fill-rule="evenodd" clip-rule="evenodd" fill="#FFFFFF" d="M49.537,25.578c-1.721,1.946-3.865,3.533-6.134,4.283
						c0.193,0.53,0.38,1.042,0.563,1.543c1.485-0.021,2.826-0.549,3.961-1.384C48.62,28.609,49.168,27.126,49.537,25.578z"/>
				</g>
				<g>
					<path fill-rule="evenodd" clip-rule="evenodd" fill="#442A18" d="M49.956,24.266c0.016,0,0.028,0.005,0.042,0.008
						c0.662-0.865,1.237-1.775,1.696-2.696c-0.591,0.072-1.185,0.171-1.781,0.199c-0.818,0.038-1.312,0.41-1.645,1.279
						c-0.176,0.464-0.386,0.901-0.62,1.313L49.956,24.266z"/>
					<path fill-rule="evenodd" clip-rule="evenodd" fill="#442A18" d="M50.167,24.828c-0.297,1.56-0.777,3.059-1.401,4.489
						c1.929-1.844,3.08-4.6,3.058-6.979C51.354,23.196,50.796,24.036,50.167,24.828z"/>
				</g>
			</g>
			<g>
				<path fill-rule="evenodd" clip-rule="evenodd" fill="#E6352C" d="M5.218,13.871c1.03,0.456,1.996,0.883,2.865,1.268
					c0.312,1.671,0.497,3.237,0.915,4.721c0.407,1.451,0.973,2.867,1.623,4.208c0.44,0.907,1.146,1.661,1.795,2.569
					c-0.149,0.244-0.353,0.574-0.548,0.893C7.728,25.469,4.313,18.934,5.218,13.871z"/>
				<g>
					<path fill-rule="evenodd" clip-rule="evenodd" fill="#442A18" d="M7.663,18.272c0.329-0.009,0.654,0.023,0.979,0.06
						c-0.2-1.023-0.352-2.084-0.56-3.193c-0.869-0.385-1.835-0.812-2.865-1.268c-0.007,0.042-0.012,0.084-0.019,0.126
						c0.06,0.003,0.118,0.037,0.156,0.119c0.674,1.451,1.496,2.794,2.293,4.161C7.654,18.275,7.657,18.272,7.663,18.272z"/>
					<path fill-rule="evenodd" clip-rule="evenodd" fill="#442A18" d="M7.35,18.703c-0.775-1.323-1.567-2.632-2.236-4.025
						c-0.196,2.207,0.352,4.62,1.368,6.79C6.649,20.509,6.992,19.593,7.35,18.703z"/>
				</g>
				<g>
					<path fill-rule="evenodd" clip-rule="evenodd" fill="#FFFFFF" d="M8.998,19.859c-0.095-0.335-0.175-0.674-0.25-1.018
						c-0.27-0.03-0.538-0.057-0.809-0.065c0.082,0.143,0.164,0.285,0.245,0.429c0.504,0.896,0.946,1.885,1.517,2.751
						C9.434,21.268,9.196,20.567,8.998,19.859z"/>
					<path fill-rule="evenodd" clip-rule="evenodd" fill="#FFFFFF" d="M10.621,24.067c-0.094-0.194-0.186-0.391-0.277-0.588
						c-1.151-1.063-1.756-2.633-2.544-4.004c-0.051-0.088-0.103-0.177-0.155-0.265c-0.376,0.956-0.711,1.94-0.804,2.983
						c1.253,2.364,3.057,4.356,5.026,5.336c0.195-0.318,0.399-0.649,0.548-0.893C11.767,25.728,11.061,24.975,10.621,24.067z"/>
				</g>
			</g>
			<g>
				<path fill-rule="evenodd" clip-rule="evenodd" fill="#E6352C" d="M49.009,14.676c0.481,0.985,0.426,2.005,0.229,2.925
					c-0.387,1.792-0.856,3.578-1.459,5.295c-0.845,2.413-2.627,3.876-4.653,5.025c-0.296,0.168-0.539,0.16-0.767-0.123
					c-0.376-0.472-0.757-0.937-1.131-1.399c0.772-0.663,1.491-1.274,2.203-1.894c2.085-1.816,3.09-4.273,3.446-7.1
					c0.082-0.655,0.113-1.32,0.148-1.979c0.022-0.422,0.213-0.653,0.583-0.684C48.075,14.705,48.547,14.697,49.009,14.676z"/>
				<g>
					<path fill-rule="evenodd" clip-rule="evenodd" fill="#FFFFFF" d="M46.449,19.562c-0.537,1.923-1.484,3.606-3.019,4.943
						c-0.712,0.62-1.431,1.231-2.203,1.894c0.119,0.147,0.241,0.299,0.361,0.446c1.588-1.109,3.059-2.376,4.073-4.177
						c0.59-1.049,1.18-2.113,1.693-3.213C47.053,19.489,46.75,19.522,46.449,19.562z"/>
					<path fill-rule="evenodd" clip-rule="evenodd" fill="#FFFFFF" d="M47.789,22.86c-0.038-0.884-0.105-1.758-0.234-2.625
						c-0.51,1.054-1.088,2.063-1.69,3.002c-1.081,1.687-2.443,2.901-3.971,3.985c0.155,0.192,0.311,0.381,0.465,0.576
						c0.228,0.283,0.471,0.291,0.767,0.123c2.026-1.149,3.809-2.613,4.653-5.025c0.004-0.012,0.007-0.022,0.011-0.034V22.86z"/>
				</g>
				<g>
					<path fill-rule="evenodd" clip-rule="evenodd" fill="#442A18" d="M47.608,14.744c-0.37,0.03-0.561,0.262-0.583,0.684
						c-0.035,0.659-0.066,1.324-0.148,1.979c-0.069,0.562-0.168,1.108-0.293,1.637c0.336-0.044,0.674-0.084,1.013-0.118
						c0.576-1.311,1.032-2.677,1.249-4.133c0.008-0.048,0.025-0.083,0.047-0.112C48.467,14.698,48.037,14.708,47.608,14.744z"/>
					<path fill-rule="evenodd" clip-rule="evenodd" fill="#442A18" d="M49.23,15.266c-0.254,1.448-0.732,2.876-1.336,4.24
						c0.135,0.722,0.223,1.451,0.28,2.184c0.418-1.34,0.766-2.711,1.062-4.088C49.395,16.864,49.458,16.062,49.23,15.266z"/>
				</g>
			</g>
			<g>
				<path fill-rule="evenodd" clip-rule="evenodd" fill="#E6352C" d="M47.944,53.41c-3.962-1.012-6.634-3.495-8.017-6.996
					c0.474-0.735,0.978-1.522,1.512-2.354c0.966,0.382,1.762,0.986,2.491,1.713c1.699,1.69,2.617,3.914,3.503,6.159
					C47.607,52.371,47.743,52.824,47.944,53.41z"/>
				<g>
					<path fill-rule="evenodd" clip-rule="evenodd" fill="#442A18" d="M45.035,51.004c-0.045,0.039-0.106,0.059-0.181,0.036
						c-0.773-0.212-1.552-0.407-2.326-0.612c1.141,1.131,2.542,2.016,4.206,2.609C46.118,52.412,45.565,51.72,45.035,51.004z"/>
					<path fill-rule="evenodd" clip-rule="evenodd" fill="#442A18" d="M47.434,51.932c-0.602-1.521-1.218-3.034-2.082-4.378
						c0.007,1.012,0.021,2.022,0.059,3.033c0.002,0.052-0.012,0.095-0.03,0.13c0.722,0.973,1.491,1.892,2.409,2.648
						c0.053,0.015,0.104,0.03,0.155,0.045C47.743,52.824,47.607,52.371,47.434,51.932z"/>
				</g>
				<g>
					<path fill-rule="evenodd" clip-rule="evenodd" fill="#FFFFFF" d="M44.649,50.471c-1.269-1.776-2.448-3.65-4.1-5.027
						c-0.212,0.331-0.42,0.656-0.622,0.971c0.491,1.246,1.149,2.357,1.967,3.323C42.811,49.995,43.732,50.223,44.649,50.471z"/>
					<path fill-rule="evenodd" clip-rule="evenodd" fill="#FFFFFF" d="M44.894,46.894c-0.292-0.395-0.61-0.77-0.963-1.121
						c-0.729-0.727-1.525-1.331-2.491-1.713c-0.215,0.334-0.423,0.658-0.628,0.977c1.672,1.379,2.852,3.28,4.127,5.074
						C44.907,49.038,44.896,47.966,44.894,46.894z"/>
				</g>
			</g>
			<g>
				<path fill-rule="evenodd" clip-rule="evenodd" fill="#E6352C" d="M0.708,25.901c0.936,0.107,1.784,0.171,2.619,0.323
					c0.185,0.033,0.363,0.347,0.481,0.572c0.968,1.844,2.134,3.496,3.817,4.611c0.675,0.449,1.419,0.771,2.196,1.183
					c-0.077,0.603-0.158,1.248-0.239,1.884C6.768,34.689,1.462,30.939,0.708,25.901z"/>
				<g>
					<path fill-rule="evenodd" clip-rule="evenodd" fill="#FFFFFF" d="M7.625,31.407c-0.874-0.579-1.606-1.307-2.247-2.126
						c-0.236,0.126-0.474,0.247-0.711,0.369c0.141,0.111,0.281,0.225,0.427,0.326c0.976,0.688,2.016,1.303,3.102,1.773
						C8.001,31.642,7.81,31.529,7.625,31.407z"/>
					<path fill-rule="evenodd" clip-rule="evenodd" fill="#FFFFFF" d="M4.881,30.419c-0.186-0.143-0.367-0.29-0.545-0.443
						c0.102,0.811,0.17,1.625,0.328,2.425c1.7,1.389,3.587,2.177,4.918,2.073c0.07-0.55,0.14-1.105,0.208-1.636
						C8.059,32.39,6.319,31.522,4.881,30.419z"/>
				</g>
				<g>
					<path fill-rule="evenodd" clip-rule="evenodd" fill="#442A18" d="M5.082,28.885c-0.469-0.652-0.889-1.354-1.274-2.089
						c-0.118-0.225-0.296-0.539-0.481-0.572c-0.802-0.146-1.618-0.212-2.511-0.311c0.002,0.002,0.005,0.002,0.008,0.004
						c1.203,1.041,2.237,2.342,3.437,3.394C4.534,29.167,4.81,29.03,5.082,28.885z"/>
					<path fill-rule="evenodd" clip-rule="evenodd" fill="#442A18" d="M3.836,29.653c-0.007-0.044,0-0.081,0.01-0.114
						c-1.029-0.95-1.968-2.015-3.004-2.96c0.497,2.115,1.778,3.969,3.28,5.35C4.007,31.175,3.942,30.412,3.836,29.653z"/>
				</g>
			</g>
			<g>
				<path fill-rule="evenodd" clip-rule="evenodd" fill="#E6352C" d="M12.127,44.736c0.419,0.444,0.872,0.925,1.309,1.389
					c0.116,3.043-3.09,6.68-5.933,7.905c-0.217-1.961,0.302-3.706,0.985-5.415C9.195,46.846,10.489,45.699,12.127,44.736z"/>
				<g>
					<path fill-rule="evenodd" clip-rule="evenodd" fill="#FFFFFF" d="M12.127,44.736c-1.502,0.883-2.712,1.922-3.448,3.45
						c0.033,1.001,0.061,1.999,0.177,2.991c0.132-0.189,0.266-0.379,0.4-0.566c1.226-1.721,2.234-3.585,3.288-5.434
						C12.403,45.03,12.262,44.879,12.127,44.736z"/>
					<path fill-rule="evenodd" clip-rule="evenodd" fill="#FFFFFF" d="M12.878,45.534c-0.905,1.6-1.756,3.262-2.812,4.748
						c-0.218,0.307-0.435,0.613-0.65,0.919c0.021-0.003,0.042-0.008,0.061-0.003c0.821-0.368,1.65-0.701,2.498-0.974
						c0.92-1.311,1.512-2.762,1.461-4.1C13.252,45.93,13.065,45.73,12.878,45.534z"/>
				</g>
				<g>
					<path fill-rule="evenodd" clip-rule="evenodd" fill="#442A18" d="M8.258,49.213c-0.489,1.318-0.842,2.671-0.801,4.138
						c0.316-0.552,0.66-1.086,1.015-1.613C8.344,50.9,8.292,50.059,8.258,49.213z"/>
					<path fill-rule="evenodd" clip-rule="evenodd" fill="#442A18" d="M8.886,51.971c-0.436,0.645-0.854,1.302-1.23,1.99
						c1.318-0.605,2.7-1.714,3.782-3.029c-0.727,0.263-1.443,0.566-2.153,0.891"/>
				</g>
			</g>
			<g>
				<path fill-rule="evenodd" clip-rule="evenodd" fill="#E6352C" d="M44.291,35.273c-0.038-0.97-0.077-1.935-0.115-2.9
					c1.003-0.404,2.053-0.772,3.058-1.249c1.37-0.65,2.426-1.751,3.354-3.016c0.205-0.277,0.482-0.598,0.773-0.67
					c0.699-0.175,1.426-0.214,2.172-0.312C52.502,30.67,47.966,34.739,44.291,35.273z"/>
				<g>
					<path fill-rule="evenodd" clip-rule="evenodd" fill="#FFFFFF" d="M48.368,30.434c-0.355,0.264-0.729,0.499-1.135,0.69
						c-1.005,0.477-2.055,0.845-3.058,1.249l0.02,0.476c1.923-0.274,4.082-0.958,5.853-2.12
						C49.488,30.62,48.929,30.52,48.368,30.434z"/>
					<path fill-rule="evenodd" clip-rule="evenodd" fill="#FFFFFF" d="M50.009,31.332c-1.786,1.099-3.898,1.752-5.795,2.019
						l0.077,1.923c1.653-0.239,3.479-1.195,5.082-2.498C49.598,32.302,49.822,31.825,50.009,31.332z"/>
				</g>
				<g>
					<path fill-rule="evenodd" clip-rule="evenodd" fill="#442A18" d="M51.36,27.438c-0.291,0.073-0.568,0.393-0.773,0.67
						c-0.515,0.704-1.073,1.353-1.699,1.905c0.475,0.078,0.95,0.164,1.424,0.257c0.096,0.02,0.145,0.085,0.163,0.161
						c1.169-0.851,2.133-1.931,2.688-3.261C52.547,27.239,51.943,27.292,51.36,27.438z"/>
					<path fill-rule="evenodd" clip-rule="evenodd" fill="#442A18" d="M50.631,30.923c-0.118,0.39-0.264,0.763-0.427,1.128
						c1.095-1.021,2.034-2.19,2.672-3.365C52.283,29.559,51.508,30.302,50.631,30.923z"/>
				</g>
			</g>
			<g>
				<path fill-rule="evenodd" clip-rule="evenodd" fill="#E6352C" d="M0.852,33.521c0.949-0.65,1.899-0.724,2.847-0.765
					c0.2-0.009,0.439,0.106,0.604,0.246c1.552,1.309,3.343,1.995,5.277,2.47c0.025,0.617,0.049,1.232,0.069,1.74
					c-0.59,0.349-1.121,0.686-1.674,0.972c-0.182,0.097-0.439,0.127-0.632,0.069c-0.762-0.234-1.546-0.435-2.259-0.797
					C3.385,36.591,1.932,35.371,0.852,33.521z"/>
				<g>
					<path fill-rule="evenodd" clip-rule="evenodd" fill="#FFFFFF" d="M6.49,34.406c-0.648,0.191-1.301,0.325-1.799,0.828
						c1.583,0.629,3.215,1.056,4.929,1.201l-0.039-0.964C8.501,35.207,7.465,34.875,6.49,34.406z"/>
					<path fill-rule="evenodd" clip-rule="evenodd" fill="#FFFFFF" d="M4.768,35.791c0.183,0.577,0.343,1.162,0.495,1.748
						c0.665,0.312,1.382,0.498,2.082,0.714c0.192,0.058,0.45,0.027,0.632-0.069c0.554-0.286,1.084-0.623,1.674-0.972L9.64,36.937
						C7.949,36.797,6.335,36.391,4.768,35.791z"/>
				</g>
				<g>
					<path fill-rule="evenodd" clip-rule="evenodd" fill="#442A18" d="M5.859,34.078c-0.541-0.306-1.061-0.66-1.556-1.076
						c-0.166-0.14-0.404-0.255-0.604-0.246c-0.895,0.039-1.792,0.113-2.688,0.667c0.021,0.005,0.043,0.009,0.065,0.021
						c1.035,0.605,2.08,1.146,3.146,1.597C4.672,34.487,5.249,34.264,5.859,34.078z"/>
					<path fill-rule="evenodd" clip-rule="evenodd" fill="#442A18" d="M4.32,35.9c-0.036-0.114,0.001-0.205,0.067-0.261
						c-1.079-0.437-2.136-0.963-3.182-1.558c0.95,1.413,2.143,2.418,3.506,3.172C4.591,36.8,4.463,36.347,4.32,35.9z"/>
				</g>
			</g>
			<g>
				<path fill-rule="evenodd" clip-rule="evenodd" fill="#E6352C" d="M41.89,43.296c0.483-1.463,0.48-1.434,1.911-1.205
					c0.972,0.153,1.957,0.188,2.932,0.322c0.432,0.06,0.883,0.167,1.27,0.374c1.195,0.646,2.388,1.312,3.443,2.401
					c-0.729,0.674-1.576,0.888-2.43,1.029c-1.272,0.211-2.535,0.035-3.784-0.261c-0.148-0.036-0.316-0.073-0.433-0.172
					C43.846,44.984,42.904,44.168,41.89,43.296z"/>
				<g>
					<path fill-rule="evenodd" clip-rule="evenodd" fill="#FFFFFF" d="M46.678,42.407c-0.956-0.132-1.924-0.165-2.877-0.316
						c-0.42-0.067-0.714-0.115-0.935-0.115c1.68,0.752,3.294,1.762,4.987,2.446C47.533,43.708,47.067,43.081,46.678,42.407z"/>
					<path fill-rule="evenodd" clip-rule="evenodd" fill="#FFFFFF" d="M45.447,45.896c0.791-0.218,1.546-0.543,2.227-1.031
						c-1.817-0.748-3.546-1.848-5.376-2.603c-0.131,0.201-0.24,0.526-0.408,1.033c1.015,0.872,1.956,1.688,2.909,2.489
						c0.116,0.099,0.284,0.136,0.433,0.172c0.035,0.009,0.069,0.015,0.104,0.023C45.36,45.942,45.396,45.91,45.447,45.896z"/>
				</g>
				<g>
					<path fill-rule="evenodd" clip-rule="evenodd" fill="#442A18" d="M48.438,44.643c0.961,0.336,1.951,0.552,2.996,0.535
						c-1.055-1.083-2.24-1.747-3.433-2.391c-0.222-0.117-0.466-0.202-0.712-0.265C47.711,43.208,48.168,43.867,48.438,44.643z"/>
					<path fill-rule="evenodd" clip-rule="evenodd" fill="#442A18" d="M48.198,45.068c-0.011,0.014-0.024,0.025-0.038,0.038
						c-0.583,0.466-1.235,0.809-1.915,1.057c0.917,0.157,1.841,0.209,2.771,0.055c0.609-0.101,1.214-0.243,1.776-0.558
						C49.894,45.597,49.035,45.375,48.198,45.068z"/>
				</g>
			</g>
			<g>
				<path fill-rule="evenodd" clip-rule="evenodd" fill="#E6352C" d="M0.778,39.162c0.908-0.461,1.762-0.906,2.627-1.326
					c0.407-0.197,0.787-0.055,1.189,0.132c1.019,0.468,2.062,0.878,3.229,1.368c0.232,1.363,1.161,2.083,2.606,2.274
					c-0.477,0.182-0.941,0.439-1.432,0.527c-1.797,0.316-3.603,0.495-5.362-0.245c-0.993-0.416-1.9-0.993-2.519-1.989
					C0.998,39.713,0.924,39.486,0.778,39.162z"/>
				<g>
					<path fill-rule="evenodd" clip-rule="evenodd" fill="#442A18" d="M5.582,38.401c-0.333-0.142-0.663-0.284-0.987-0.434
						c-0.402-0.187-0.782-0.329-1.189-0.132c-0.807,0.392-1.607,0.808-2.448,1.235c0.863,0.388,1.744,0.663,2.638,0.854
						C4.211,39.345,4.946,38.949,5.582,38.401z"/>
					<path fill-rule="evenodd" clip-rule="evenodd" fill="#442A18" d="M3.556,40.503c-0.018-0.029-0.027-0.061-0.032-0.09
						c-0.863-0.184-1.715-0.438-2.551-0.798c0.046,0.107,0.09,0.202,0.144,0.288c0.619,0.996,1.526,1.573,2.519,1.989
						c0.394,0.166,0.791,0.284,1.188,0.367C4.348,41.725,3.925,41.136,3.556,40.503z"/>
				</g>
				<g>
					<path fill-rule="evenodd" clip-rule="evenodd" fill="#FFFFFF" d="M4.186,40.039c1.312,0.229,2.65,0.294,3.991,0.286
						c-0.169-0.283-0.29-0.609-0.354-0.989c-0.616-0.26-1.196-0.495-1.757-0.729C5.482,39.151,4.794,39.533,4.186,40.039z"/>
					<path fill-rule="evenodd" clip-rule="evenodd" fill="#FFFFFF" d="M8.569,40.816c-1.494,0.022-2.982-0.036-4.444-0.288
						c0.424,0.68,0.912,1.299,1.475,1.849c1.127,0.106,2.264-0.041,3.398-0.239c0.491-0.088,0.956-0.346,1.432-0.527
						C9.649,41.507,9.02,41.247,8.569,40.816z"/>
				</g>
			</g>
			<g>
				<path fill-rule="evenodd" clip-rule="evenodd" fill="#E6352C" d="M53.707,34.226c-2.273,2.143-4.653,3.665-7.595,3.982
					c-0.021-1.887-0.387-2.266-1.98-1.953c0.171-0.155,0.231-0.257,0.312-0.279c1.973-0.594,3.827-1.461,5.495-2.783
					c0.204-0.162,0.536-0.263,0.782-0.214C51.719,33.179,52.706,33.439,53.707,34.226z"/>
				<g>
					<path fill-rule="evenodd" clip-rule="evenodd" fill="#442A18" d="M50.727,34.949c0.052,0.007,0.086,0.03,0.115,0.06
						c0.896-0.273,1.786-0.576,2.666-0.927c-0.933-0.671-1.855-0.917-2.786-1.104c-0.246-0.049-0.578,0.052-0.782,0.214
						c-0.506,0.401-1.032,0.756-1.571,1.079C49.127,34.595,49.906,34.856,50.727,34.949z"/>
					<path fill-rule="evenodd" clip-rule="evenodd" fill="#442A18" d="M48.995,37.465c1.475-0.613,2.819-1.549,4.119-2.699
						c-0.933,0.352-1.875,0.654-2.825,0.924C49.888,36.312,49.472,36.921,48.995,37.465z"/>
				</g>
				<g>
					<path fill-rule="evenodd" clip-rule="evenodd" fill="#FFFFFF" d="M47.837,34.577c-1.08,0.587-2.214,1.043-3.393,1.398
						c-0.081,0.022-0.142,0.124-0.312,0.279c0.678-0.134,1.133-0.14,1.436,0.043c1.438-0.29,2.867-0.611,4.282-1.001
						C49.158,35.133,48.491,34.875,47.837,34.577z"/>
					<path fill-rule="evenodd" clip-rule="evenodd" fill="#FFFFFF" d="M47.917,37.846c0.663-0.548,1.199-1.237,1.69-1.967
						c-1.221,0.326-2.454,0.602-3.689,0.852c0.134,0.327,0.188,0.805,0.194,1.478C46.739,38.14,47.338,38.017,47.917,37.846z"/>
				</g>
			</g>
			<g>
				<path fill-rule="evenodd" clip-rule="evenodd" fill="#E6352C" d="M2.662,45.507c0.667-0.955,1.476-1.708,2.471-2.216
					c0.137-0.071,0.294-0.141,0.441-0.138c1.663,0.036,3.3-0.145,4.904-0.639c0.087-0.026,0.185-0.011,0.305-0.016
					c0.259,0.437,0.511,0.865,0.76,1.285C9.855,46.367,4.989,47.223,2.662,45.507z"/>
				<g>
					<path fill-rule="evenodd" clip-rule="evenodd" fill="#FFFFFF" d="M10.782,42.499c-0.12,0.005-0.218-0.011-0.305,0.016
						C9.497,42.817,8.504,43,7.5,43.092c-0.264,0.681-0.727,1.249-1.205,1.771c0.399-0.124,0.795-0.263,1.191-0.402
						c1.215-0.426,2.409-0.912,3.506-1.605C10.921,42.734,10.854,42.618,10.782,42.499z"/>
					<path fill-rule="evenodd" clip-rule="evenodd" fill="#FFFFFF" d="M11.242,43.277c-1.007,0.646-2.101,1.128-3.214,1.52
						c-0.552,0.192-1.103,0.382-1.659,0.554c0.52,0.403,1.145,0.583,1.765,0.717c1.416-0.41,2.695-1.192,3.408-2.283
						C11.444,43.618,11.342,43.445,11.242,43.277z"/>
				</g>
				<g>
					<path fill-rule="evenodd" clip-rule="evenodd" fill="#442A18" d="M5.702,44.801c0.472-0.502,0.961-1.032,1.276-1.672
						c-0.466,0.025-0.934,0.037-1.404,0.024c-0.147-0.003-0.305,0.066-0.441,0.138c-0.982,0.501-1.783,1.242-2.444,2.182
						c0.656-0.105,1.315-0.125,1.979-0.222c0.334-0.047,0.663-0.117,0.989-0.203C5.625,44.971,5.629,44.879,5.702,44.801z"/>
					<path fill-rule="evenodd" clip-rule="evenodd" fill="#442A18" d="M5.963,45.645c-0.051-0.045-0.072-0.098-0.077-0.149
						c-0.24,0.068-0.482,0.13-0.726,0.187c-0.605,0.14-1.222,0.159-1.836,0.215c1.066,0.499,2.444,0.614,3.794,0.398
						C6.707,46.145,6.315,45.943,5.963,45.645z"/>
				</g>
			</g>
			<g>
				<path fill-rule="evenodd" clip-rule="evenodd" fill="#E6352C" d="M52.222,39.475c-1.157,2.002-5.399,3.112-9.329,1.701
					c0.12-0.097,0.199-0.206,0.297-0.229c0.99-0.255,1.84-0.72,2.45-1.67c0.136-0.214,0.469-0.309,0.729-0.39
					c1.035-0.323,2.074-0.636,3.119-0.915c0.22-0.058,0.516-0.043,0.704,0.078C50.873,38.483,51.522,38.978,52.222,39.475z"/>
				<g>
					<path fill-rule="evenodd" clip-rule="evenodd" fill="#442A18" d="M49.432,39.732c0.015,0.012,0.027,0.022,0.04,0.035
						c0.901-0.143,1.802-0.283,2.714-0.318c-0.686-0.489-1.325-0.975-1.994-1.399c-0.188-0.121-0.484-0.136-0.704-0.078
						c-0.66,0.176-1.317,0.367-1.974,0.565C48.173,38.895,48.816,39.28,49.432,39.732z"/>
					<path fill-rule="evenodd" clip-rule="evenodd" fill="#442A18" d="M51.855,39.969c-0.897,0.066-1.781,0.231-2.671,0.37
						c-0.494,0.524-1.021,1.003-1.591,1.418C49.439,41.571,51.01,40.905,51.855,39.969z"/>
				</g>
				<g>
					<path fill-rule="evenodd" clip-rule="evenodd" fill="#FFFFFF" d="M46.849,38.739c-0.16,0.05-0.32,0.097-0.48,0.147
						c-0.26,0.081-0.593,0.176-0.729,0.39c-0.209,0.327-0.449,0.592-0.709,0.814c1.012,0.013,2.021,0.026,3.026-0.099
						c0.278-0.036,0.556-0.076,0.834-0.118C48.165,39.452,47.512,39.084,46.849,38.739z"/>
					<path fill-rule="evenodd" clip-rule="evenodd" fill="#FFFFFF" d="M48.408,40.447c-0.276,0.035-0.553,0.065-0.83,0.084
						c-1.126,0.077-2.257,0.038-3.385,0.046c-0.313,0.157-0.649,0.276-1.004,0.369c-0.098,0.023-0.177,0.133-0.297,0.229
						c1.253,0.45,2.538,0.643,3.744,0.634C47.274,41.438,47.864,40.97,48.408,40.447z"/>
				</g>
			</g>
		</g>
		<g>
			
				<path fill-rule="evenodd" clip-rule="evenodd" fill="#F8B232" stroke="#7D4F23" stroke-width="0.25" stroke-linejoin="round" stroke-miterlimit="10" d="
				M43.41,35.271c-0.18-0.363-0.351-0.731-0.538-1.092c-0.572-1.092-1.106-2.21-1.742-3.257c-0.416-0.688-0.918-1.353-1.492-1.883
				c-2.178-2.014-4.644-3.416-7.446-4.097c-1.905-0.461-3.816-0.873-5.768-0.778c-3.029,0.146-5.898,1.016-8.58,2.576
				c-0.646,0.376-1.258,0.825-1.91,1.188c-1.658,0.924-2.77,2.435-3.68,4.14c-0.61,1.142-1.134,2.342-1.764,3.656
				c-0.2-0.82-0.163-1.515-0.08-2.205c0.233-1.938,0.861-3.738,1.838-5.348c0.557-0.916,1.261-1.79,2.06-2.447
				c2.546-2.098,5.361-3.625,8.544-4.18c1.413-0.247,2.837-0.456,4.263-0.553c0.848-0.058,1.715,0.096,2.563,0.231
				c0.97,0.153,1.923,0.425,2.892,0.583c1.323,0.214,2.458,0.925,3.636,1.546c1.385,0.732,2.685,1.588,3.794,2.764
				c1.245,1.319,2.442,2.677,3.062,4.507C43.565,32.122,43.695,33.659,43.41,35.271z"/>
			<path fill-rule="evenodd" clip-rule="evenodd" fill="#E75025" d="M11.466,33.096c-0.259-0.291-0.615-0.291-0.964-0.202
				c-0.035,0.207-0.066,0.418-0.092,0.627c-0.083,0.69-0.12,1.385,0.08,2.205c0.403-0.843,0.764-1.633,1.13-2.395
				C11.575,33.246,11.526,33.163,11.466,33.096z"/>
			<g>
				<path fill-rule="evenodd" clip-rule="evenodd" fill="#442A18" d="M11.88,31.764c-0.354-0.225-0.716-0.265-1.082-0.201
					c-0.072,0.268-0.139,0.536-0.196,0.807c0.412-0.07,0.826-0.028,1.123,0.304c0.048,0.056,0.09,0.114,0.13,0.174
					c0.124-0.25,0.249-0.496,0.377-0.737C12.134,31.971,12.018,31.852,11.88,31.764z"/>
				<path fill-rule="evenodd" clip-rule="evenodd" fill="#442A18" d="M43.061,30.624c-0.619-1.83-1.816-3.188-3.062-4.507
					c-1.109-1.176-2.409-2.032-3.794-2.764c-1.178-0.622-2.312-1.332-3.636-1.546c-0.969-0.158-1.922-0.429-2.892-0.583
					c-0.848-0.135-1.715-0.289-2.563-0.231c-1.426,0.097-2.851,0.306-4.263,0.553c-3.183,0.555-5.998,2.082-8.544,4.18
					c-0.799,0.657-1.502,1.531-2.06,2.447c-0.5,0.825-0.906,1.7-1.216,2.615c0.439-0.012,0.873,0.095,1.265,0.387
					c0.111,0.082,0.208,0.178,0.3,0.278c0.847-1.449,1.881-2.713,3.336-3.523c0.652-0.363,1.264-0.812,1.91-1.188
					c2.682-1.56,5.551-2.43,8.58-2.576c1.951-0.095,3.862,0.317,5.768,0.778c2.803,0.681,5.269,2.083,7.446,4.097
					c0.574,0.53,1.076,1.194,1.492,1.883c0.144,0.235,0.28,0.475,0.413,0.714c0.442-0.42,1.004-0.635,1.614-0.704
					C43.126,30.829,43.095,30.728,43.061,30.624z"/>
				<path fill-rule="evenodd" clip-rule="evenodd" fill="#442A18" d="M41.904,32.307c0.096,0.182,0.189,0.365,0.283,0.547
					c0.338-0.376,0.802-0.578,1.282-0.5c-0.032-0.234-0.076-0.467-0.127-0.697C42.785,31.699,42.283,31.886,41.904,32.307z"/>
			</g>
			<path fill-rule="evenodd" clip-rule="evenodd" fill="#E75025" d="M42.422,33.309c0.148,0.291,0.298,0.581,0.45,0.871
				c0.188,0.36,0.358,0.729,0.538,1.092c0.146-0.82,0.182-1.622,0.116-2.41C43.104,32.729,42.688,32.936,42.422,33.309z"/>
			<g>
				<g>
					<path fill="#95C13D" d="M26.887,23.861c1.469-0.066,1.369-2.567-0.099-2.501C25.318,21.426,25.418,23.927,26.887,23.861
						L26.887,23.861z"/>
				</g>
				<g>
					<path fill-rule="evenodd" clip-rule="evenodd" fill="#95C13D" d="M24.056,22.985"/>
					<g>
						<path fill="#3CAA49" d="M24.056,25.61c3.386,0,3.386-5.25,0-5.25S20.67,25.61,24.056,25.61L24.056,25.61z"/>
					</g>
				</g>
				<g>
					<path fill-rule="evenodd" clip-rule="evenodd" fill="#95C13D" d="M29.757,22.867"/>
					<g>
						<path fill="#3CAA49" d="M29.757,25.492c3.386,0,3.386-5.25,0-5.25S26.371,25.492,29.757,25.492L29.757,25.492z"/>
					</g>
				</g>
			</g>
		</g>
	</g>
	<g>
		<path fill="#201B21" d="M23.791,39.495c0.004,0.55-0.411,0.999-0.928,1.006l0,0c-0.517,0.005-0.941-0.437-0.946-0.986
			l-0.016-1.825c-0.004-0.551,0.411-1,0.928-1.005l0,0c0.518-0.004,0.94,0.436,0.945,0.985L23.791,39.495z"/>
		<path fill="#201B21" d="M32.065,39.414c0.005,0.549-0.412,0.999-0.929,1.003l0,0c-0.518,0.006-0.94-0.436-0.944-0.985
			l-0.017-1.824c-0.005-0.551,0.409-1,0.927-1.005l0,0c0.518-0.006,0.941,0.437,0.946,0.985L32.065,39.414z"/>
		<path fill="#EF9080" d="M28.702,41.653c0.003,0.385-0.505,0.7-1.136,0.709l-0.599,0.005c-0.63,0.006-1.646-0.295-1.649-0.681l0,0
			c-0.002-0.385,0.998-1.636,1.628-1.642l0.599-0.006C28.177,40.032,28.698,41.27,28.702,41.653L28.702,41.653z"/>
		<path fill="#EF9080" d="M27.546,40.039l-0.599,0.006l0.021,2.322l0.599-0.005c0.631-0.009,1.139-0.324,1.136-0.709
			C28.698,41.27,28.177,40.032,27.546,40.039z"/>
		<path fill="#010101" d="M30.735,42.415c-0.229-0.077-0.471,0.056-0.542,0.299c-0.947,3.158-5.343,3.209-6.346,0.063
			c-0.076-0.24-0.321-0.369-0.548-0.288c-0.226,0.081-0.347,0.342-0.271,0.583c1.261,3.966,6.789,3.932,7.988-0.08
			C31.09,42.75,30.963,42.492,30.735,42.415z"/>
	</g>
</g>
</svg>
